<?xml version="1.0" encoding="UTF-8"?>
<svg width="24px" height="24px" viewBox="0 0 24 24" version="1.1" xmlns="http://www.w3.org/2000/svg" xmlns:xlink="http://www.w3.org/1999/xlink">
  <!-- Generator: Sketch 46.2 (44496) - http://www.bohemiancoding.com/sketch -->
  <title>列选</title>
  <desc>Created with Sketch.</desc>
  <defs></defs>
  <g id="Page-1" stroke="none" stroke-width="1" fill="none" fill-rule="evenodd">
    <g id="第三方管理&gt;报销" transform="translate(-942.000000, -178.000000)" fill="#6C6C6C">
      <g id="元数据" transform="translate(20.000000, 164.000000)">
        <g id="nav-list" transform="translate(922.000000, 14.000000)">
          <path d="M7.296,6.3363125 L14.704,6.3363125 C14.8674667,6.3363125 15,6.0381125 15,5.6703125 C15,5.3025125 14.8674667,5.0043125 14.704,5.0043125 L7.296,5.0043125 C7.13253333,5.0043125 7,5.3025125 7,5.6703125 C7,6.0381125 7.13253333,6.3363125 7.296,6.3363125 Z" id="Shape"></path>
          <path d="M4.934,5.0043125 L2.666,5.0043125 C2.2982,5.0043125 2,5.3025125 2,5.6703125 C2,6.0381125 2.2982,6.3363125 2.666,6.3363125 L4.934,6.3363125 C5.3018,6.3363125 5.6,6.0381125 5.6,5.6703125 C5.6,5.3025125 5.3018,5.0043125 4.934,5.0043125 Z" id="Shape"></path>
          <path d="M4.934,11 L2.666,11 C2.2982,11 2,11.2982 2,11.666 C2,12.0338 2.2982,12.332 2.666,12.332 L4.934,12.332 C5.3018,12.332 5.6,12.0338 5.6,11.666 C5.6,11.2982 5.3018,11 4.934,11 Z" id="Shape"></path>
          <path d="M14.3657143,17.2043125 L7.63428571,17.2043125 C7.284,17.2043125 7,17.5025125 7,17.8697125 C7,18.2375125 7.284,18.5363125 7.63428571,18.5363125 L14.3657143,18.5363125 C14.716,18.5363125 15,18.2375125 15,17.8697125 C15,17.5025125 14.716,17.2043125 14.3657143,17.2043125 Z" id="Shape"></path>
          <path d="M14.3657143,11 L7.63428571,11 C7.284,11 7,11.2982 7,11.6654 C7,12.0332 7.284,12.332 7.63428571,12.332 L14.3657143,12.332 C14.716,12.332 15,12.0332 15,11.6654 C15,11.2982 14.716,11 14.3657143,11 Z" id="Shape-Copy"></path>
          <path d="M4.934,17.2043125 L2.666,17.2043125 C2.2982,17.2043125 2,17.5025125 2,17.8697125 C2,18.2375125 2.2982,18.5363125 2.666,18.5363125 L4.934,18.5363125 C5.3018,18.5363125 5.6,18.2375125 5.6,17.8697125 C5.6,17.5025125 5.3018,17.2043125 4.934,17.2043125 Z" id="Shape"></path>
          <path d="M22.334,13.6709125 L19.466,13.6709125 L19.466,10.8029125 C19.466,10.4351125 19.1678,10.1369125 18.8006,10.1369125 C18.4328,10.1369125 18.1346,10.4351125 18.1346,10.8029125 L18.1346,13.6709125 L15.266,13.6709125 C14.8982,13.6709125 14.6,13.9691125 14.6,14.3369125 C14.6,14.7041125 14.8982,15.0023125 15.266,15.0023125 L18.1334,15.0023125 L18.1334,17.8703125 C18.1334,18.2381125 18.4316,18.5363125 18.7994,18.5363125 C19.1666,18.5363125 19.4648,18.2381125 19.4648,17.8703125 L19.4648,15.0029125 L22.3328,15.0029125 C22.7006,15.0029125 22.9988,14.7047125 22.9988,14.3375125 C23,13.9691125 22.7018,13.6709125 22.334,13.6709125 Z" id="Shape"></path>
        </g>
      </g>
    </g>
  </g>
</svg>
