<?xml version="1.0" encoding="UTF-8"?>
<svg width="16px" height="16px" viewBox="0 0 16 16" version="1.1" xmlns="http://www.w3.org/2000/svg" xmlns:xlink="http://www.w3.org/1999/xlink">
    <!-- Generator: Sketch 47.1 (45422) - http://www.bohemiancoding.com/sketch -->
    <title>icon/列选/16px</title>
    <desc>Created with Sketch.</desc>
    <defs>
        <path d="M5.221269,3.80705544 C5.74826193,3.46387902 6.34874546,3.21856528 7,3.09383383 L7,1 L9,1 L9,3.09383383 C9.65125454,3.21856528 10.2517381,3.46387902 10.778731,3.80705544 L12.2426407,2.34314575 L13.6568542,3.75735931 L12.1929446,5.221269 C12.536121,5.74826193 12.7814347,6.34874546 12.9061662,7 L15,7 L15,9 L12.9061662,9 C12.7814347,9.65125454 12.536121,10.2517381 12.1929446,10.778731 L13.6568542,12.2426407 L12.2426407,13.6568542 L10.778731,12.1929446 C10.2517381,12.536121 9.65125454,12.7814347 9,12.9061662 L9,15 L7,15 L7,12.9061662 C6.34874546,12.7814347 5.74826193,12.536121 5.221269,12.1929446 L3.75735931,13.6568542 L2.34314575,12.2426407 L3.80705544,10.778731 C3.46387902,10.2517381 3.21856528,9.65125454 3.09383383,9 L1,9 L1,7 L3.09383383,7 C3.21856528,6.34874546 3.46387902,5.74826193 3.80705544,5.221269 L2.34314575,3.75735931 L3.75735931,2.34314575 L5.221269,3.80705544 Z M8,10 C9.13043478,10 10,9.13043478 10,8 C10,6.86956522 9.13043478,6 8,6 C6.86956522,6 6,6.86956522 6,8 C6,9.13043478 6.86956522,10 8,10 Z" id="path-1"></path>
    </defs>
    <g id="Symbols" stroke="none" stroke-width="1" fill="none" fill-rule="evenodd">
        <g id="icon/列选/16px">
            <mask id="mask-2" fill="white">
                <use xlink:href="#path-1"></use>
            </mask>
            <use id="Combined-Shape" fill="#32b5c5" xlink:href="#path-1"></use>
        </g>
    </g>
</svg>